<svg xmlns="http://www.w3.org/2000/svg" width="393" height="852" viewBox="0 0 393 852">
  <defs>
    <linearGradient id="bg" x1="0" y1="0" x2="0" y2="1">
      <stop offset="0%" stop-color="#141414"/>
      <stop offset="100%" stop-color="#0A0A0A"/>
    </linearGradient>
    <linearGradient id="btnGrad" x1="0%" y1="0%" x2="100%" y2="0%">
      <stop offset="0%" stop-color="#A8D98A"/>
      <stop offset="100%" stop-color="#7BBF5C"/>
    </linearGradient>
    <clipPath id="phone">
      <rect width="393" height="852" rx="44"/>
    </clipPath>
  </defs>

  <rect width="393" height="852" rx="44" fill="url(#bg)" clip-path="url(#phone)"/>

  <!-- Status bar -->
  <text x="36" y="26" font-family="-apple-system,SF Pro Display,Inter,sans-serif" font-size="15" font-weight="600" fill="#fff">9:41</text>
  <rect x="298" y="17" width="4" height="8" rx="1" fill="#fff"/>
  <rect x="305" y="14" width="4" height="11" rx="1" fill="#fff"/>
  <rect x="312" y="11" width="4" height="14" rx="1" fill="#fff"/>
  <rect x="319" y="8" width="4" height="17" rx="1" fill="#fff"/>
  <path d="M330 21 Q335 16 340 21" fill="none" stroke="#fff" stroke-width="1.8" stroke-linecap="round"/>
  <path d="M327 18 Q335 11 343 18" fill="none" stroke="#fff" stroke-width="1.8" stroke-linecap="round"/>
  <circle cx="335" cy="23" r="2" fill="#fff"/>
  <rect x="350" y="13" width="28" height="14" rx="3.5" fill="none" stroke="#fff" stroke-opacity="0.5" stroke-width="1.2"/>
  <rect x="352" y="15" width="22" height="10" rx="2" fill="#fff"/>
  <rect x="379" y="17" width="2.5" height="6" rx="1.2" fill="#fff" fill-opacity="0.5"/>
  <rect x="148" y="10" width="97" height="30" rx="20" fill="#000"/>

  <!-- Header -->
  <text x="196" y="88" font-family="-apple-system,SF Pro Display,Inter,sans-serif" font-size="18" font-weight="700" fill="#fff" text-anchor="middle">Upgrade</text>
  <circle cx="355" cy="84" r="14" fill="#fff" fill-opacity="0.1"/>
  <line x1="349" y1="78" x2="361" y2="90" stroke="#fff" stroke-width="2" stroke-linecap="round"/>
  <line x1="361" y1="78" x2="349" y2="90" stroke="#fff" stroke-width="2" stroke-linecap="round"/>

  <!-- Tabs -->
  <rect x="20" y="108" width="353" height="44" rx="14" fill="#1A1A1A"/>
  <rect x="24" y="112" width="171" height="36" rx="11" fill="#92C977"/>
  <text x="110" y="136" font-family="-apple-system,SF Pro Display,Inter,sans-serif" font-size="15" font-weight="700" fill="#000" text-anchor="middle">Plus</text>
  <text x="285" y="136" font-family="-apple-system,SF Pro Display,Inter,sans-serif" font-size="15" font-weight="600" fill="#fff" fill-opacity="0.5" text-anchor="middle">Pro</text>

  <!-- Billing toggle: Yearly active -->
  <rect x="20" y="166" width="353" height="40" rx="12" fill="#1A1A1A"/>
  <rect x="197" y="170" width="172" height="32" rx="9" fill="#2A2A2A"/>
  <text x="110" y="191" font-family="-apple-system,SF Pro Display,Inter,sans-serif" font-size="13" font-weight="500" fill="#fff" fill-opacity="0.4" text-anchor="middle">Monthly</text>
  <text x="283" y="191" font-family="-apple-system,SF Pro Display,Inter,sans-serif" font-size="13" font-weight="600" fill="#fff" text-anchor="middle">Yearly</text>

  <!-- Save badge -->
  <rect x="136" y="214" width="121" height="22" rx="11" fill="#92C977" fill-opacity="0.2"/>
  <text x="196" y="230" font-family="-apple-system,SF Pro Display,Inter,sans-serif" font-size="11" font-weight="700" fill="#92C977" text-anchor="middle">Save 16% · Best Value</text>

  <!-- Price hero -->
  <text x="196" y="290" font-family="-apple-system,SF Pro Display,Inter,sans-serif" font-size="58" font-weight="900" fill="#92C977" text-anchor="middle" letter-spacing="-2">$29.99</text>
  <text x="196" y="318" font-family="-apple-system,SF Pro Display,Inter,sans-serif" font-size="14" font-weight="400" fill="#fff" fill-opacity="0.4" text-anchor="middle">per year · only $2.50 / month</text>

  <!-- Divider -->
  <line x1="20" y1="342" x2="373" y2="342" stroke="#fff" stroke-opacity="0.08" stroke-width="1"/>

  <!-- Feature rows -->
  <text x="36" y="372" font-family="-apple-system,SF Pro Display,Inter,sans-serif" font-size="14" fill="#fff" fill-opacity="0.7">Daily encounters</text>
  <text x="357" y="372" font-family="-apple-system,SF Pro Display,Inter,sans-serif" font-size="14" font-weight="700" fill="#92C977" text-anchor="end">Unlimited</text>
  <line x1="20" y1="384" x2="373" y2="384" stroke="#fff" stroke-opacity="0.06" stroke-width="1"/>

  <text x="36" y="410" font-family="-apple-system,SF Pro Display,Inter,sans-serif" font-size="14" fill="#fff" fill-opacity="0.7">Profile photos</text>
  <text x="357" y="410" font-family="-apple-system,SF Pro Display,Inter,sans-serif" font-size="14" font-weight="700" fill="#92C977" text-anchor="end">3 photos</text>
  <line x1="20" y1="422" x2="373" y2="422" stroke="#fff" stroke-opacity="0.06" stroke-width="1"/>

  <text x="36" y="448" font-family="-apple-system,SF Pro Display,Inter,sans-serif" font-size="14" fill="#fff" fill-opacity="0.7">Reveal requests</text>
  <text x="357" y="448" font-family="-apple-system,SF Pro Display,Inter,sans-serif" font-size="14" font-weight="700" fill="#92C977" text-anchor="end">Unlimited</text>
  <line x1="20" y1="460" x2="373" y2="460" stroke="#fff" stroke-opacity="0.06" stroke-width="1"/>

  <text x="36" y="486" font-family="-apple-system,SF Pro Display,Inter,sans-serif" font-size="14" fill="#fff" fill-opacity="0.7">Opening messages</text>
  <text x="357" y="486" font-family="-apple-system,SF Pro Display,Inter,sans-serif" font-size="14" font-weight="700" fill="#92C977" text-anchor="end">1 / day</text>
  <line x1="20" y1="498" x2="373" y2="498" stroke="#fff" stroke-opacity="0.06" stroke-width="1"/>

  <text x="36" y="524" font-family="-apple-system,SF Pro Display,Inter,sans-serif" font-size="14" fill="#fff" fill-opacity="0.7">Full encounter history</text>
  <circle cx="350" cy="519" r="10" fill="#92C977" fill-opacity="0.15"/>
  <polyline points="345,519 349,523 357,515" fill="none" stroke="#92C977" stroke-width="2" stroke-linecap="round" stroke-linejoin="round"/>
  <line x1="20" y1="536" x2="373" y2="536" stroke="#fff" stroke-opacity="0.06" stroke-width="1"/>

  <text x="36" y="562" font-family="-apple-system,SF Pro Display,Inter,sans-serif" font-size="14" fill="#fff" fill-opacity="0.7">Privacy mode</text>
  <circle cx="350" cy="557" r="10" fill="#92C977" fill-opacity="0.15"/>
  <polyline points="345,557 349,561 357,553" fill="none" stroke="#92C977" stroke-width="2" stroke-linecap="round" stroke-linejoin="round"/>
  <line x1="20" y1="574" x2="373" y2="574" stroke="#fff" stroke-opacity="0.06" stroke-width="1"/>

  <text x="36" y="600" font-family="-apple-system,SF Pro Display,Inter,sans-serif" font-size="14" fill="#fff" fill-opacity="0.7">Verified badge</text>
  <circle cx="350" cy="595" r="10" fill="#92C977" fill-opacity="0.15"/>
  <polyline points="345,595 349,599 357,591" fill="none" stroke="#92C977" stroke-width="2" stroke-linecap="round" stroke-linejoin="round"/>

  <!-- CTA Button -->
  <rect x="20" y="668" width="353" height="56" rx="16" fill="url(#btnGrad)"/>
  <text x="196" y="702" font-family="-apple-system,SF Pro Display,Inter,sans-serif" font-size="17" font-weight="700" fill="#000" text-anchor="middle">Subscribe · $29.99 / yr</text>

  <text x="196" y="742" font-family="-apple-system,SF Pro Display,Inter,sans-serif" font-size="12" fill="#fff" fill-opacity="0.3" text-anchor="middle">Restore purchases</text>
  <text x="196" y="762" font-family="-apple-system,SF Pro Display,Inter,sans-serif" font-size="11" fill="#fff" fill-opacity="0.2" text-anchor="middle">Cancel anytime. Auto-renews annually.</text>

  <rect x="152" y="824" width="89" height="5" rx="2.5" fill="#fff" fill-opacity="0.3"/>
</svg>
